<?xml version="1.0" encoding="utf-8"?>
<!-- Generator: Adobe Illustrator 22.0.1, SVG Export Plug-In . SVG Version: 6.00 Build 0)  -->
<svg version="1.1" id="레이어_2" xmlns="http://www.w3.org/2000/svg" xmlns:xlink="http://www.w3.org/1999/xlink" x="0px"
	 y="0px" viewBox="0 0 100 100" style="enable-background:new 0 0 100 100;" xml:space="preserve">
<style type="text/css">
	.st0{fill:#CCCCCC;}
	.st1{fill:#363636;}
	.st2{fill:#ADADAD;}
	.st3{fill:#919191;}
	.st4{fill:#C7C7C7;}
</style>
<path class="st0" d="M79.9,36.4C79.4,21.5,66.4,9.5,50.4,9.5s-28.9,12-29.5,26.9l-2.3,39.3l22.2,14.8H60l22.2-14.8L79.9,36.4z"/>
<path class="st1" d="M79.1,43.5v-2.1H21.7v2.1c3.7,0,23.3,4.9,23.3,4.9c1,9.5,1.5,38.6,1.5,38.6l-3.8,3.5h7.7h7.7L54.3,87
	c0,0,0.5-29.2,1.5-38.6C55.8,48.4,75.4,43.5,79.1,43.5z"/>
<g>
	<path class="st0" d="M78,78.5l-5.3-16.4c-7,1-10.4,8.5-11.4,11.9c-0.8,2.9-1.9,13.4-2.2,16.5h1.1L78,78.5z"/>
	<path class="st2" d="M79.7,49.6c-1.4,2.1-5.8,8.6-7,12.5L78,78.5l2.5-1.7L79.7,49.6z"/>
	<path class="st3" d="M79.7,48.6c-23.1,4.9-21,41.9-21,41.9h0.4c0.3-3,1.4-13.5,2.2-16.5c1-3.4,4.4-10.9,11.4-11.9
		c1.2-3.9,5.6-10.5,7-12.5L79.7,48.6z"/>
</g>
<g>
	<path class="st0" d="M22.6,78.5L28,62.1c7,1,10.4,8.5,11.4,11.9c0.8,2.9,1.9,13.4,2.2,16.5h-1.1L22.6,78.5z"/>
	<path class="st2" d="M20.9,49.6c1.4,2.1,5.8,8.6,7,12.5l-5.3,16.4l-2.5-1.7L20.9,49.6z"/>
	<path class="st3" d="M20.9,48.6c23.1,4.9,21,41.9,21,41.9h-0.4c-0.3-3-1.4-13.5-2.2-16.5c-1-3.4-4.4-10.9-11.4-11.9
		c-1.2-3.9-5.6-10.5-7-12.5L20.9,48.6z"/>
</g>
<polygon class="st3" points="80,37.4 20.9,37.4 21,35.7 79.9,35.9 "/>
<path class="st2" d="M50.4,9.5c-1.8,0-3.6,0.2-5.4,0.5v26.1l2.8,2.1H53l2.8-2.1V10C54.1,9.7,52.3,9.5,50.4,9.5z"/>
<rect x="48.5" y="11.9" class="st3" width="3.7" height="22.7"/>
<g>
	<polygon class="st2" points="82.8,45.8 80.2,47 79.3,45.8 79.3,39.8 82.8,39.8 	"/>
	<polygon class="st3" points="82.9,54.6 80.5,55.9 80.2,49.6 82.9,49.6 	"/>
	<path class="st4" d="M82.8,39.8h-3.1l-0.3-4.4h1.4c1.1,0,2.1,0.9,2.1,2.1V39.8z"/>
	<polygon class="st3" points="81.1,39.8 81,38 82.4,38.3 82.4,39.8 	"/>
	<polygon class="st3" points="82.8,38.9 83.7,40.1 83.7,49.3 80.6,48.1 80.5,46.8 82.8,45.8 	"/>
	<polygon class="st0" points="82.8,38.3 82.8,38.8 83.7,40.1 83.7,49.3 84.2,48.9 84.2,40 	"/>
	<polygon class="st2" points="80.7,48.1 80.7,49.6 82.9,49.6 	"/>
</g>
<g>
	<polygon class="st2" points="80.8,45.8 83.4,47 84.2,45.8 84.2,39.8 80.8,39.8 	"/>
	<polygon class="st3" points="80.7,54.6 83.1,55.9 83.4,49.6 80.7,49.6 	"/>
	<path class="st4" d="M80.8,39.8h3.1l0.3-4.4h-1.4c-1.1,0-2.1,0.9-2.1,2.1V39.8z"/>
	<polygon class="st3" points="82.5,39.8 82.6,38 81.1,38.3 81.1,39.8 	"/>
	<polygon class="st3" points="80.8,38.9 79.8,40.1 79.8,49.3 83,48.1 83.1,46.8 80.8,45.8 	"/>
	<polygon class="st0" points="80.8,38.3 80.8,38.8 79.8,40.1 79.8,49.3 79.3,48.9 79.3,40 	"/>
	<polygon class="st2" points="82.9,48.1 82.9,49.6 80.7,49.6 	"/>
</g>
<g>
	<polygon class="st2" points="17.7,45.8 20.3,47 21.1,45.8 21.1,39.8 17.7,39.8 	"/>
	<polygon class="st3" points="17.5,54.6 19.9,55.9 20.3,49.6 17.5,49.6 	"/>
	<path class="st4" d="M17.7,39.8h3.1l0.3-4.4h-1.4c-1.1,0-2.1,0.9-2.1,2.1V39.8z"/>
	<polygon class="st3" points="19.4,39.8 19.5,38 18,38.3 18,39.8 	"/>
	<polygon class="st3" points="17.7,38.9 16.7,40.1 16.7,49.3 19.8,48.1 19.9,46.8 17.7,45.8 	"/>
	<polygon class="st0" points="17.7,38.3 17.7,38.8 16.7,40.1 16.7,49.3 16.2,48.9 16.2,40 	"/>
	<polygon class="st2" points="19.8,48.1 19.7,49.6 17.5,49.6 	"/>
</g>
</svg>
